<mxfile host="app.diagrams.net" agent="Mozilla/5.0 (Windows NT 10.0; Win64; x64) AppleWebKit/537.36 (KHTML, like Gecko) Chrome/129.0.0.0 Safari/537.36" version="24.8.1">
  <diagram id="C5RBs43oDa-KdzZeNtuy" name="Page-1">
    <mxGraphModel dx="1430" dy="786" grid="1" gridSize="10" guides="1" tooltips="1" connect="1" arrows="1" fold="1" page="1" pageScale="1" pageWidth="827" pageHeight="1169" math="0" shadow="0">
      <root>
        <mxCell id="WIyWlLk6GJQsqaUBKTNV-0" />
        <mxCell id="WIyWlLk6GJQsqaUBKTNV-1" parent="WIyWlLk6GJQsqaUBKTNV-0" />
        <mxCell id="WIyWlLk6GJQsqaUBKTNV-2" value="" style="rounded=0;html=1;jettySize=auto;orthogonalLoop=1;fontSize=11;endArrow=block;endFill=0;endSize=8;strokeWidth=1;shadow=0;labelBackgroundColor=none;edgeStyle=orthogonalEdgeStyle;" parent="WIyWlLk6GJQsqaUBKTNV-1" source="WIyWlLk6GJQsqaUBKTNV-3" target="WIyWlLk6GJQsqaUBKTNV-6" edge="1">
          <mxGeometry relative="1" as="geometry" />
        </mxCell>
        <mxCell id="WIyWlLk6GJQsqaUBKTNV-3" value="Invite Creation" style="rounded=1;whiteSpace=wrap;html=1;fontSize=12;glass=0;strokeWidth=1;shadow=0;" parent="WIyWlLk6GJQsqaUBKTNV-1" vertex="1">
          <mxGeometry x="10" y="10" width="120" height="40" as="geometry" />
        </mxCell>
        <mxCell id="WIyWlLk6GJQsqaUBKTNV-4" value="" style="rounded=0;html=1;jettySize=auto;orthogonalLoop=1;fontSize=11;endArrow=block;endFill=0;endSize=8;strokeWidth=1;shadow=0;labelBackgroundColor=none;edgeStyle=orthogonalEdgeStyle;" parent="WIyWlLk6GJQsqaUBKTNV-1" source="WIyWlLk6GJQsqaUBKTNV-6" edge="1">
          <mxGeometry y="20" relative="1" as="geometry">
            <mxPoint as="offset" />
            <mxPoint x="70" y="220" as="targetPoint" />
          </mxGeometry>
        </mxCell>
        <mxCell id="06jQEKfHEUzu6eFfH_fs-6" value="" style="edgeStyle=orthogonalEdgeStyle;rounded=0;orthogonalLoop=1;jettySize=auto;html=1;" edge="1" parent="WIyWlLk6GJQsqaUBKTNV-1" source="WIyWlLk6GJQsqaUBKTNV-6" target="06jQEKfHEUzu6eFfH_fs-5">
          <mxGeometry relative="1" as="geometry" />
        </mxCell>
        <mxCell id="06jQEKfHEUzu6eFfH_fs-8" value="Yes" style="edgeLabel;html=1;align=center;verticalAlign=middle;resizable=0;points=[];" vertex="1" connectable="0" parent="06jQEKfHEUzu6eFfH_fs-6">
          <mxGeometry x="-0.385" y="4" relative="1" as="geometry">
            <mxPoint x="9" y="-6" as="offset" />
          </mxGeometry>
        </mxCell>
        <mxCell id="WIyWlLk6GJQsqaUBKTNV-6" value="Admin Perms?" style="rhombus;whiteSpace=wrap;html=1;shadow=0;fontFamily=Helvetica;fontSize=12;align=center;strokeWidth=1;spacing=6;spacingTop=-4;" parent="WIyWlLk6GJQsqaUBKTNV-1" vertex="1">
          <mxGeometry x="20" y="100" width="100" height="80" as="geometry" />
        </mxCell>
        <mxCell id="WIyWlLk6GJQsqaUBKTNV-12" value="Create User Invite" style="rounded=1;whiteSpace=wrap;html=1;fontSize=12;glass=0;strokeWidth=1;shadow=0;" parent="WIyWlLk6GJQsqaUBKTNV-1" vertex="1">
          <mxGeometry x="10" y="220" width="120" height="40" as="geometry" />
        </mxCell>
        <mxCell id="06jQEKfHEUzu6eFfH_fs-5" value="Create Admin Invite" style="rounded=1;whiteSpace=wrap;html=1;shadow=0;strokeWidth=1;spacing=6;spacingTop=-4;" vertex="1" parent="WIyWlLk6GJQsqaUBKTNV-1">
          <mxGeometry x="160" y="120" width="120" height="40" as="geometry" />
        </mxCell>
        <mxCell id="06jQEKfHEUzu6eFfH_fs-9" value="No" style="text;html=1;align=center;verticalAlign=middle;resizable=0;points=[];autosize=1;strokeColor=none;fillColor=none;" vertex="1" parent="WIyWlLk6GJQsqaUBKTNV-1">
          <mxGeometry x="60" y="178" width="40" height="30" as="geometry" />
        </mxCell>
        <mxCell id="06jQEKfHEUzu6eFfH_fs-12" value="" style="edgeStyle=orthogonalEdgeStyle;rounded=0;orthogonalLoop=1;jettySize=auto;html=1;" edge="1" parent="WIyWlLk6GJQsqaUBKTNV-1" source="06jQEKfHEUzu6eFfH_fs-10" target="06jQEKfHEUzu6eFfH_fs-11">
          <mxGeometry relative="1" as="geometry" />
        </mxCell>
        <mxCell id="06jQEKfHEUzu6eFfH_fs-14" value="" style="edgeStyle=orthogonalEdgeStyle;rounded=0;orthogonalLoop=1;jettySize=auto;html=1;" edge="1" parent="WIyWlLk6GJQsqaUBKTNV-1" source="06jQEKfHEUzu6eFfH_fs-10" target="06jQEKfHEUzu6eFfH_fs-13">
          <mxGeometry relative="1" as="geometry" />
        </mxCell>
        <mxCell id="06jQEKfHEUzu6eFfH_fs-10" value="Home Page" style="rounded=1;whiteSpace=wrap;html=1;" vertex="1" parent="WIyWlLk6GJQsqaUBKTNV-1">
          <mxGeometry x="470" y="59.31" width="120" height="40" as="geometry" />
        </mxCell>
        <mxCell id="06jQEKfHEUzu6eFfH_fs-16" value="" style="edgeStyle=orthogonalEdgeStyle;rounded=0;orthogonalLoop=1;jettySize=auto;html=1;" edge="1" parent="WIyWlLk6GJQsqaUBKTNV-1" source="06jQEKfHEUzu6eFfH_fs-11" target="06jQEKfHEUzu6eFfH_fs-15">
          <mxGeometry relative="1" as="geometry">
            <Array as="points">
              <mxPoint x="330" y="159.31" />
            </Array>
          </mxGeometry>
        </mxCell>
        <mxCell id="06jQEKfHEUzu6eFfH_fs-11" value="Admin Login" style="whiteSpace=wrap;html=1;rounded=1;" vertex="1" parent="WIyWlLk6GJQsqaUBKTNV-1">
          <mxGeometry x="390" y="139.31" width="120" height="40" as="geometry" />
        </mxCell>
        <mxCell id="06jQEKfHEUzu6eFfH_fs-19" value="" style="edgeStyle=orthogonalEdgeStyle;rounded=0;orthogonalLoop=1;jettySize=auto;html=1;exitX=0.5;exitY=1;exitDx=0;exitDy=0;" edge="1" parent="WIyWlLk6GJQsqaUBKTNV-1" source="06jQEKfHEUzu6eFfH_fs-13" target="06jQEKfHEUzu6eFfH_fs-18">
          <mxGeometry relative="1" as="geometry" />
        </mxCell>
        <mxCell id="06jQEKfHEUzu6eFfH_fs-21" value="" style="edgeStyle=orthogonalEdgeStyle;rounded=0;orthogonalLoop=1;jettySize=auto;html=1;" edge="1" parent="WIyWlLk6GJQsqaUBKTNV-1" source="06jQEKfHEUzu6eFfH_fs-13" target="06jQEKfHEUzu6eFfH_fs-20">
          <mxGeometry relative="1" as="geometry" />
        </mxCell>
        <mxCell id="06jQEKfHEUzu6eFfH_fs-22" value="" style="edgeStyle=orthogonalEdgeStyle;rounded=0;orthogonalLoop=1;jettySize=auto;html=1;" edge="1" parent="WIyWlLk6GJQsqaUBKTNV-1" source="06jQEKfHEUzu6eFfH_fs-13" target="06jQEKfHEUzu6eFfH_fs-20">
          <mxGeometry relative="1" as="geometry" />
        </mxCell>
        <mxCell id="06jQEKfHEUzu6eFfH_fs-24" value="" style="edgeStyle=orthogonalEdgeStyle;rounded=0;orthogonalLoop=1;jettySize=auto;html=1;" edge="1" parent="WIyWlLk6GJQsqaUBKTNV-1" source="06jQEKfHEUzu6eFfH_fs-13" target="06jQEKfHEUzu6eFfH_fs-20">
          <mxGeometry relative="1" as="geometry" />
        </mxCell>
        <mxCell id="06jQEKfHEUzu6eFfH_fs-26" value="" style="edgeStyle=orthogonalEdgeStyle;rounded=0;orthogonalLoop=1;jettySize=auto;html=1;" edge="1" parent="WIyWlLk6GJQsqaUBKTNV-1" source="06jQEKfHEUzu6eFfH_fs-13" target="06jQEKfHEUzu6eFfH_fs-25">
          <mxGeometry relative="1" as="geometry">
            <Array as="points">
              <mxPoint x="610" y="199.31" />
              <mxPoint x="750" y="199.31" />
            </Array>
          </mxGeometry>
        </mxCell>
        <mxCell id="06jQEKfHEUzu6eFfH_fs-13" value="User Login" style="whiteSpace=wrap;html=1;rounded=1;" vertex="1" parent="WIyWlLk6GJQsqaUBKTNV-1">
          <mxGeometry x="550" y="139.31" width="120" height="40" as="geometry" />
        </mxCell>
        <mxCell id="06jQEKfHEUzu6eFfH_fs-15" value="Ability Editor" style="whiteSpace=wrap;html=1;rounded=1;" vertex="1" parent="WIyWlLk6GJQsqaUBKTNV-1">
          <mxGeometry x="270" y="219.31" width="120" height="40" as="geometry" />
        </mxCell>
        <mxCell id="06jQEKfHEUzu6eFfH_fs-17" style="edgeStyle=orthogonalEdgeStyle;rounded=0;orthogonalLoop=1;jettySize=auto;html=1;exitX=0.5;exitY=1;exitDx=0;exitDy=0;" edge="1" parent="WIyWlLk6GJQsqaUBKTNV-1" source="06jQEKfHEUzu6eFfH_fs-15" target="06jQEKfHEUzu6eFfH_fs-15">
          <mxGeometry relative="1" as="geometry" />
        </mxCell>
        <mxCell id="06jQEKfHEUzu6eFfH_fs-18" value="Create New Character" style="whiteSpace=wrap;html=1;rounded=1;" vertex="1" parent="WIyWlLk6GJQsqaUBKTNV-1">
          <mxGeometry x="410" y="219.31" width="120" height="40" as="geometry" />
        </mxCell>
        <mxCell id="06jQEKfHEUzu6eFfH_fs-20" value="Character Editor" style="whiteSpace=wrap;html=1;rounded=1;" vertex="1" parent="WIyWlLk6GJQsqaUBKTNV-1">
          <mxGeometry x="550" y="219.31" width="120" height="40" as="geometry" />
        </mxCell>
        <mxCell id="06jQEKfHEUzu6eFfH_fs-25" value="Character Viewer" style="whiteSpace=wrap;html=1;rounded=1;" vertex="1" parent="WIyWlLk6GJQsqaUBKTNV-1">
          <mxGeometry x="690" y="219.31" width="120" height="40" as="geometry" />
        </mxCell>
      </root>
    </mxGraphModel>
  </diagram>
</mxfile>
